<?xml version="1.0" encoding="UTF-8" standalone="no"?>
<svg
   xmlns:dc="http://purl.org/dc/elements/1.1/"
   xmlns:cc="http://creativecommons.org/ns#"
   xmlns:rdf="http://www.w3.org/1999/02/22-rdf-syntax-ns#"
   xmlns:svg="http://www.w3.org/2000/svg"
   xmlns="http://www.w3.org/2000/svg"
   id="svg6251"
   height="2.7549734in"
   width="4.1664152in"
   version="1.1">
  <defs
     id="defs1457" />
  <metadata
     id="metadata6256">
    <rdf:RDF>
      <cc:Work
         rdf:about="">
        <dc:format>image/svg+xml</dc:format>
        <dc:type
           rdf:resource="http://purl.org/dc/dcmitype/StillImage" />
        <dc:title></dc:title>
      </cc:Work>
    </rdf:RDF>
  </metadata>
  <g
     id="layer1"
     stroke-linejoin="bevel"
     transform="translate(-257.6422,-578.53039)"
     stroke="#000000"
     stroke-linecap="butt"
     stroke-dasharray="none"
     stroke-miterlimit="4">
    <path
       id="ia82"
       style="marker-start:none"
       d="m 611.32,723.4 6.9385,-0.3754 20.777,-0.58901 8.4531,2.4854 -0.9644,9.0939 -3.2363,4.3495 -3.7023,4.3172 -11.786,5.8382 -5.0227,1.2816 -2.1294,0.0582 -0.89968,-0.11648 -7.7347,-11.722 -0.69256,-14.621"
       fill-rule="nonzero"
       stroke-width="0.647252"
       fill="#d0d0d0">
      <title
         id="title82">Scott</title>
    </path>
    <path
       id="ia23"
       style="marker-start:none"
       d="m 610.15,701.41 45.851,-2.602 0.67315,8.7314 -4.8156,12.479 -4.3754,4.9062 -8.4531,-2.4854 -20.777,0.58901 -6.9385,0.3754 -0.78965,-14.641 -0.37541,-7.3528"
       fill-rule="nonzero"
       stroke-width="0.647252"
       fill="#d0d0d0">
      <title
         id="title23">Clinton</title>
    </path>
    <path
       id="ia60"
       style="marker-start:none"
       d="m 259.18,586.67 8.8026,0.0582 24.181,0.0842 11.586,0.0323 -0.0323,20.304 -43.495,-0.32361 -1.0421,-20.155"
       fill-rule="nonzero"
       stroke-width="0.647252"
       fill="#d0d0d0">
      <title
         id="title60">Lyon</title>
    </path>
    <path
       id="ia84"
       style="marker-start:none"
       d="m 260.22,606.83 43.495,0.32361 0.20712,29.204 -40.46,-0.0648 4.2266,-14.589 0.9644,-2.5696 0.17477,-0.57605 -2.3366,-8.4013 -0.57604,-0.27184 -4.3495,-0.0194 -1.3463,-3.0356"
       fill-rule="nonzero"
       stroke-width="0.647252"
       fill="#d0d0d0">
      <title
         id="title84">Sioux</title>
    </path>
    <path
       id="ia75"
       style="marker-start:none"
       d="m 303.92,636.36 v 29.223 l -37.955,-0.0906 -2.2136,-5.8318 -1.5793,-2.5372 -2.013,-1.8706 -1.5987,-1.2233 2.4466,-11.197 2.4531,-6.5372 40.46,0.0648"
       fill-rule="nonzero"
       stroke-width="0.647252"
       fill="#d0d0d0">
      <title
         id="title75">Plymouth</title>
    </path>
    <path
       id="ia18"
       style="marker-start:none"
       d="m 332.66,636.2 0.20066,29.204 -21.67,0.12304 -7.2686,0.0518 v -29.223 l 28.738,-0.15536"
       fill-rule="nonzero"
       stroke-width="0.647252"
       fill="#d0d0d0">
      <title
         id="title18">Cherokee</title>
    </path>
    <path
       id="ia71"
       style="marker-start:none"
       d="m 303.72,607.15 28.764,0.0842 0.18123,28.965 -28.738,0.15536 -0.20712,-29.204"
       fill-rule="nonzero"
       stroke-width="0.647252"
       fill="#d0d0d0">
      <title
         id="title71">O'Brien</title>
    </path>
    <path
       id="ia72"
       style="marker-start:none"
       d="m 328.35,586.7 h 4.0259 l 0.11008,20.537 -28.764,-0.0842 0.0323,-20.304 24.596,-0.1488"
       fill-rule="nonzero"
       stroke-width="0.647252"
       fill="#d0d0d0">
      <title
         id="title72">Osceola</title>
    </path>
    <path
       id="ia30"
       style="marker-start:none"
       d="m 332.37,586.7 28.557,-0.2589 0.31715,20.531 -28.764,0.26538 -0.11008,-20.537"
       fill-rule="nonzero"
       stroke-width="0.647252"
       fill="#d0d0d0">
      <title
         id="title30">Dickinson</title>
    </path>
    <path
       id="ia21"
       style="marker-start:none"
       d="m 332.48,607.24 28.764,-0.26538 0.32362,28.971 -28.906,0.25889 -0.18123,-28.965"
       fill-rule="nonzero"
       stroke-width="0.647252"
       fill="#d0d0d0">
      <title
         id="title21">Clay</title>
    </path>
    <path
       id="ia11"
       style="marker-start:none"
       d="m 361.57,635.94 0.29126,29.314 -28.997,0.1488 -0.20066,-29.204 28.906,-0.25889"
       fill-rule="nonzero"
       stroke-width="0.647252"
       fill="#d0d0d0">
      <title
         id="title11">Buena Vista</title>
    </path>
    <path
       id="ia76"
       style="marker-start:none"
       d="m 361.57,635.94 28.706,-0.25891 0.34952,22.078 0.1488,7.2039 -28.913,0.29127 -0.29126,-29.314"
       fill-rule="nonzero"
       stroke-width="0.647252"
       fill="#d0d0d0">
      <title
         id="title76">Pocahontas</title>
    </path>
    <path
       id="ia74"
       style="marker-start:none"
       d="m 389.78,606.6 0.49839,29.088 -28.706,0.25891 -0.32362,-28.971 28.531,-0.37541"
       fill-rule="nonzero"
       stroke-width="0.647252"
       fill="#d0d0d0">
      <title
         id="title74">Palo Alto</title>
    </path>
    <path
       id="ia32"
       style="marker-start:none"
       d="m 389.46,586.03 0.31715,20.57 -28.531,0.37541 -0.31715,-20.531 3.6764,-0.0582 24.854,-0.356"
       fill-rule="nonzero"
       stroke-width="0.647252"
       fill="#d0d0d0">
      <title
         id="title32">Emmet</title>
    </path>
    <path
       id="ia55"
       style="marker-start:none"
       d="m 417.99,585.56 0.46602,20.479 0.55017,29.146 -28.732,0.49839 -0.49839,-29.088 -0.31715,-20.57 11.819,-0.20064 16.712,-0.26537"
       fill-rule="nonzero"
       stroke-width="0.647252"
       fill="#d0d0d0">
      <title
         id="title55">Kossuth</title>
    </path>
    <path
       id="ia46"
       style="marker-start:none"
       d="m 390.27,635.68 28.732,-0.49839 0.47248,22.052 -28.854,0.52427 -0.34952,-22.078"
       fill-rule="nonzero"
       stroke-width="0.647252"
       fill="#d0d0d0">
      <title
         id="title46">Humboldt</title>
    </path>
    <path
       id="ia97"
       style="marker-start:none"
       d="m 303.92,665.58 7.2686,-0.0518 0.0259,6.0712 2.3948,1.1845 h 2.0065 v 22.11 l -42.214,-0.31069 0.76376,-5.1651 -1.8706,-3.5016 -0.72491,-9.6052 0.43365,-1.1586 -0.0259,-1.288 -0.2589,-0.96442 -0.64725,-0.89968 -0.81555,-0.31715 -2.0971,-0.1488 -2.1942,-6.0453 37.955,0.0906"
       fill-rule="nonzero"
       stroke-width="0.647252"
       fill="#d0d0d0">
      <title
         id="title97">Woodbury</title>
    </path>
    <path
       id="ia47"
       style="marker-start:none"
       d="m 332.86,665.41 0.0582,7.2945 3.9935,-0.0323 0.0906,22.181 -21.385,0.0453 v -22.11 h -2.0065 l -2.3948,-1.1845 -0.0259,-6.0712 21.67,-0.12304"
       fill-rule="nonzero"
       stroke-width="0.647252"
       fill="#d0d0d0">
      <title
         id="title47">Ida</title>
    </path>
    <path
       id="ia81"
       style="marker-start:none"
       d="m 332.86,665.41 28.997,-0.1488 0.0582,7.2169 h 3.5599 l 0.17475,22.194 -14.324,0.0906 -14.324,0.0906 -0.0906,-22.181 -3.9935,0.0323 -0.0582,-7.2945"
       fill-rule="nonzero"
       stroke-width="0.647252"
       fill="#d0d0d0">
      <title
         id="title81">Sac</title>
    </path>
    <path
       id="ia13"
       style="marker-start:none"
       d="m 361.86,665.26 28.913,-0.29127 0.0906,7.178 2.7961,-0.0259 0.38189,22.175 -14.24,0.20065 -14.149,0.17476 -0.17475,-22.194 h -3.5599 l -0.0582,-7.2169"
       fill-rule="nonzero"
       stroke-width="0.647252"
       fill="#d0d0d0">
      <title
         id="title13">Calhoun</title>
    </path>
    <path
       id="ia94"
       style="marker-start:none"
       d="m 419.48,657.24 0.29127,14.473 2.4531,-0.0259 0.49192,21.961 -14.35,0.3301 -14.324,0.31715 -0.38189,-22.175 -2.7961,0.0259 -0.0906,-7.178 -0.1488,-7.2039 28.854,-0.52427"
       fill-rule="nonzero"
       stroke-width="0.647252"
       fill="#d0d0d0">
      <title
         id="title94">Webster</title>
    </path>
    <path
       id="ia37"
       style="marker-start:none"
       d="m 394.04,694.29 14.324,-0.31715 0.60842,29.107 -7.2104,0.136 -21.554,0.38835 -0.40776,-29.113 14.24,-0.20066"
       fill-rule="nonzero"
       stroke-width="0.647252"
       fill="#d0d0d0">
      <title
         id="title37">Greene</title>
    </path>
    <path
       id="ia14"
       style="marker-start:none"
       d="m 365.65,694.67 14.149,-0.17475 0.40776,29.113 -7.178,0.11648 -21.528,0.17477 -0.17475,-29.139 14.324,-0.0906"
       fill-rule="nonzero"
       stroke-width="0.647252"
       fill="#d0d0d0">
      <title
         id="title14">Carroll</title>
    </path>
    <path
       id="ia24"
       style="marker-start:none"
       d="m 351.33,694.76 0.17475,29.139 -28.732,0.17475 -7.1521,0.0582 v -29.236 l 21.385,-0.0453 14.324,-0.0906"
       fill-rule="nonzero"
       stroke-width="0.647252"
       fill="#d0d0d0">
      <title
         id="title24">Crawford</title>
    </path>
    <path
       id="ia67"
       style="marker-start:none"
       d="m 315.62,694.89 v 29.236 l -28.906,-0.20066 -8.2007,-15.23 -5.1068,-14.117 42.214,0.31069"
       fill-rule="nonzero"
       stroke-width="0.647252"
       fill="#d0d0d0">
      <title
         id="title67">Monona</title>
    </path>
    <path
       id="ia43"
       style="marker-start:none"
       d="m 322.77,724.07 0.0259,21.968 3.7346,-0.0323 0.0323,8.0842 h -30.045 l -8.6991,-14.757 -1.1068,-15.405 28.906,0.20065 7.1521,-0.0582"
       fill-rule="nonzero"
       stroke-width="0.647252"
       fill="#d0d0d0">
      <title
         id="title43">Harrison</title>
    </path>
    <path
       id="ia83"
       style="marker-start:none"
       d="m 322.77,724.07 28.732,-0.17475 0.20064,21.935 3.2427,-0.0259 0.0906,8.1619 -7.1198,0.0389 -21.353,0.0842 -0.0323,-8.0842 -3.7347,0.0323 -0.0259,-21.968"
       fill-rule="nonzero"
       stroke-width="0.647252"
       fill="#d0d0d0">
      <title
         id="title83">Shelby</title>
    </path>
    <path
       id="ia05"
       style="marker-start:none"
       d="m 351.5,723.9 21.528,-0.17477 0.29126,18.168 2.7508,3.644 0.11008,8.2395 -21.146,0.19417 -0.0906,-8.1618 -3.2427,0.0259 -0.20064,-21.935"
       fill-rule="nonzero"
       stroke-width="0.647252"
       fill="#d0d0d0">
      <title
         id="title05">Audubon</title>
    </path>
    <path
       id="ia39"
       style="marker-start:none"
       d="m 380.21,723.61 21.554,-0.38835 0.41425,21.974 h 2.4207 l 0.1424,8.1748 -28.557,0.40778 -0.11008,-8.2395 -2.7508,-3.644 -0.29126,-18.168 7.178,-0.11648"
       fill-rule="nonzero"
       stroke-width="0.647252"
       fill="#d0d0d0">
      <title
         id="title39">Guthrie</title>
    </path>
    <path
       id="ia01"
       style="marker-start:none"
       d="m 404.74,753.37 0.53075,29.107 -14.324,0.20712 -14.35,0.17476 -0.41424,-29.081 28.557,-0.40778"
       fill-rule="nonzero"
       stroke-width="0.647252"
       fill="#d0d0d0">
      <title
         id="title01">Adair</title>
    </path>
    <path
       id="ia15"
       style="marker-start:none"
       d="m 376.18,753.78 0.41424,29.081 -14.214,0.1488 -14.265,0.0776 -0.20064,-29.075 7.1198,-0.0389 21.146,-0.19418"
       fill-rule="nonzero"
       stroke-width="0.647252"
       fill="#d0d0d0">
      <title
         id="title15">Cass</title>
    </path>
    <path
       id="ia78"
       style="marker-start:none"
       d="m 326.57,754.09 21.353,-0.0842 0.20064,29.075 -14.207,0.11648 -29.372,0.0648 -4.3754,-2.6278 -0.93203,-16.977 -2.712,-9.5664 h 30.045"
       fill-rule="nonzero"
       stroke-width="0.647252"
       fill="#d0d0d0">
      <title
         id="title78">Pottawattamie</title>
    </path>
    <path
       id="ia36"
       style="marker-start:none"
       d="m 306.47,804.97 27.469,-0.11648 0.0906,11.32 0.73139,9.3981 0.0582,6.2654 -24.68,-0.25889 -5.6311,-16.693 1.9612,-9.9159"
       fill-rule="nonzero"
       stroke-width="0.647252"
       fill="#d0d0d0">
      <title
         id="title36">Fremont</title>
    </path>
    <path
       id="ia65"
       style="marker-start:none"
       d="m 333.91,783.2 0.0259,21.651 -27.469,0.11648 -2.7767,-12.194 0.8479,-9.5081 29.372,-0.0648"
       fill-rule="nonzero"
       stroke-width="0.647252"
       fill="#d0d0d0">
      <title
         id="title65">Mills</title>
    </path>
    <path
       id="ia69"
       style="marker-start:none"
       d="m 348.12,783.08 14.265,-0.0776 0.17476,21.664 -28.622,0.18123 -0.0259,-21.651 14.207,-0.11648"
       fill-rule="nonzero"
       stroke-width="0.647252"
       fill="#d0d0d0">
      <title
         id="title69">Montgomery</title>
    </path>
    <path
       id="ia73"
       style="marker-start:none"
       d="m 362.56,804.67 0.18124,14.563 h 0.95793 l 0.0582,12.809 -18.142,-0.11648 -10.796,-0.0906 -0.0582,-6.2654 -0.73139,-9.3981 -0.0906,-11.32 28.622,-0.18123"
       fill-rule="nonzero"
       stroke-width="0.647252"
       fill="#d0d0d0">
      <title
         id="title73">Page</title>
    </path>
    <path
       id="ia87"
       style="marker-start:none"
       d="m 391.3,804.38 0.40778,27.625 -10.117,0.12304 -17.832,-0.0906 -0.0582,-12.809 h -0.95793 l -0.18124,-14.563 28.738,-0.28479"
       fill-rule="nonzero"
       stroke-width="0.647252"
       fill="#d0d0d0">
      <title
         id="title87">Taylor</title>
    </path>
    <path
       id="ia02"
       style="marker-start:none"
       d="m 390.95,782.68 0.34952,21.702 -28.738,0.28479 -0.17476,-21.664 14.214,-0.1488 14.35,-0.17475"
       fill-rule="nonzero"
       stroke-width="0.647252"
       fill="#d0d0d0">
      <title
         id="title02">Adams</title>
    </path>
    <path
       id="ia88"
       style="marker-start:none"
       d="m 405.27,782.47 14.207,-0.23302 0.43367,21.825 -28.615,0.31715 -0.34952,-21.702 14.324,-0.20712"
       fill-rule="nonzero"
       stroke-width="0.647252"
       fill="#d0d0d0">
      <title
         id="title88">Union</title>
    </path>
    <path
       id="ia80"
       style="marker-start:none"
       d="m 391.3,804.38 28.615,-0.31715 0.49838,27.159 -13.651,0.42719 -15.055,0.35598 -0.40778,-27.625"
       fill-rule="nonzero"
       stroke-width="0.647252"
       fill="#d0d0d0">
      <title
         id="title80">Ringgold</title>
    </path>
    <path
       id="ia27"
       style="marker-start:none"
       d="m 419.91,804.07 28.706,-0.76376 0.67313,26.719 -13.683,0.5631 -15.197,0.64078 -0.49838,-27.159"
       fill-rule="nonzero"
       stroke-width="0.647252"
       fill="#d0d0d0">
      <title
         id="title27">Decatur</title>
    </path>
    <path
       id="ia20"
       style="marker-start:none"
       d="m 448.01,781.19 0.60842,22.117 -28.706,0.76376 -0.43367,-21.825 14.058,-0.75728 14.473,-0.29773"
       fill-rule="nonzero"
       stroke-width="0.647252"
       fill="#d0d0d0">
      <title
         id="title20">Clarke</title>
    </path>
    <path
       id="ia61"
       style="marker-start:none"
       d="m 432.78,752.07 0.75728,29.411 -14.058,0.75728 -14.207,0.23302 -0.53075,-29.107 28.039,-1.2945"
       fill-rule="nonzero"
       stroke-width="0.647252"
       fill="#d0d0d0">
      <title
         id="title61">Madison</title>
    </path>
    <path
       id="ia25"
       style="marker-start:none"
       d="m 430.51,722.58 0.52427,18.434 1.5405,3.6505 0.20712,7.4046 -28.039,1.2945 -0.1424,-8.1748 h -2.4207 l -0.41426,-21.974 7.2104,-0.136 21.534,-0.49838"
       fill-rule="nonzero"
       stroke-width="0.647252"
       fill="#d0d0d0">
      <title
         id="title25">Dallas</title>
    </path>
    <path
       id="ia08"
       style="marker-start:none"
       d="m 437.07,693.38 0.73141,29.029 -7.2945,0.17477 -21.534,0.49838 -0.60842,-29.107 14.35,-0.3301 14.356,-0.26537"
       fill-rule="nonzero"
       stroke-width="0.647252"
       fill="#d0d0d0">
      <title
         id="title08">Boone</title>
    </path>
    <path
       id="ia40"
       style="marker-start:none"
       d="m 448.56,663.87 3.0032,29.159 -14.492,0.35599 -14.356,0.26537 -0.49192,-21.961 -2.4531,0.0259 -0.1424,-7.2039 28.932,-0.64079"
       fill-rule="nonzero"
       stroke-width="0.647252"
       fill="#d0d0d0">
      <title
         id="title40">Hamilton</title>
    </path>
    <path
       id="ia99"
       style="marker-start:none"
       d="m 419.01,635.19 28.829,-0.75728 0.72493,29.437 -28.932,0.64079 -0.14896,-7.2687 -0.47248,-22.052"
       fill-rule="nonzero"
       stroke-width="0.647252"
       fill="#d0d0d0">
      <title
         id="title99">Wright</title>
    </path>
    <path
       id="ia41"
       style="marker-start:none"
       d="m 447.14,605.34 0.69902,29.088 -28.829,0.75728 -0.55017,-29.146 28.68,-0.69904"
       fill-rule="nonzero"
       stroke-width="0.647252"
       fill="#d0d0d0">
      <title
         id="title41">Hancock</title>
    </path>
    <path
       id="ia95"
       style="marker-start:none"
       d="m 446.61,584.89 0.52427,20.453 -28.68,0.69904 -0.46602,-20.479 19.456,-0.44013 9.1651,-0.23301"
       fill-rule="nonzero"
       stroke-width="0.647252"
       fill="#d0d0d0">
      <title
         id="title95">Winnebago</title>
    </path>
    <path
       id="ia98"
       style="marker-start:none"
       d="m 475.17,584.04 0.66667,20.46 -28.699,0.84142 -0.52427,-20.453 27.068,-0.78318 1.4887,-0.0646"
       fill-rule="nonzero"
       stroke-width="0.647252"
       fill="#d0d0d0">
      <title
         id="title98">Worth</title>
    </path>
    <path
       id="ia17"
       style="marker-start:none"
       d="m 447.14,605.34 28.699,-0.84142 0.11648,3.5858 0.73141,25.554 -28.848,0.78965 -0.69903,-29.088"
       fill-rule="nonzero"
       stroke-width="0.647252"
       fill="#d0d0d0">
      <title
         id="title17">Cerro Gordo</title>
    </path>
    <path
       id="ia35"
       style="marker-start:none"
       d="m 447.84,634.43 28.848,-0.78965 0.81554,29.463 -28.939,0.76376 -0.72493,-29.437"
       fill-rule="nonzero"
       stroke-width="0.647252"
       fill="#d0d0d0">
      <title
         id="title35">Franklin</title>
    </path>
    <path
       id="ia42"
       style="marker-start:none"
       d="m 477.5,663.1 2.4854,29.081 -14.181,0.4725 -14.24,0.36894 -3.0032,-29.159 28.939,-0.76376"
       fill-rule="nonzero"
       stroke-width="0.647252"
       fill="#d0d0d0">
      <title
         id="title42">Hardin</title>
    </path>
    <path
       id="ia85"
       style="marker-start:none"
       d="m 465.8,692.66 0.84143,29.055 -7.1716,0.16827 -21.67,0.53075 -0.73141,-29.029 14.492,-0.35599 14.24,-0.36894"
       fill-rule="nonzero"
       stroke-width="0.647252"
       fill="#d0d0d0">
      <title
         id="title85">Story</title>
    </path>
    <path
       id="ia77"
       style="marker-start:none"
       d="m 459.47,721.88 2.013,29.825 0.0518,1.3398 -28.757,-0.97087 -0.20712,-7.4046 -1.5405,-3.6505 -0.52427,-18.434 7.2946,-0.17477 21.67,-0.53075"
       fill-rule="nonzero"
       stroke-width="0.647252"
       fill="#d0d0d0">
      <title
         id="title77">Polk</title>
    </path>
    <path
       id="ia91"
       style="marker-start:none"
       d="m 461.54,753.04 0.81553,27.793 -14.343,0.34952 -14.473,0.29773 -0.75728,-29.411 28.757,0.97087"
       fill-rule="nonzero"
       stroke-width="0.647252"
       fill="#d0d0d0">
      <title
         id="title91">Warren</title>
    </path>
    <path
       id="ia59"
       style="marker-start:none"
       d="m 462.35,780.84 14.304,-0.40777 0.75081,22.032 -28.79,0.84142 -0.60842,-22.117 14.343,-0.34952"
       fill-rule="nonzero"
       stroke-width="0.647252"
       fill="#d0d0d0">
      <title
         id="title59">Lucas</title>
    </path>
    <path
       id="ia93"
       style="marker-start:none"
       d="m 477.41,802.46 0.84791,26.434 -17.443,0.80907 -11.521,0.31716 -0.67313,-26.719 28.79,-0.84142"
       fill-rule="nonzero"
       stroke-width="0.647252"
       fill="#d0d0d0">
      <title
         id="title93">Wayne</title>
    </path>
    <path
       id="ia04"
       style="marker-start:none"
       d="m 506.15,801.46 1.0162,25.903 -4.8156,0.26536 -24.097,1.2621 -0.84791,-26.434 28.744,-0.99677"
       fill-rule="nonzero"
       stroke-width="0.647252"
       fill="#d0d0d0">
      <title
         id="title04">Appanoose</title>
    </path>
    <path
       id="ia68"
       style="marker-start:none"
       d="m 505.3,779.45 0.85436,22.02 -28.744,0.99677 -0.75081,-22.032 14.324,-0.46602 14.317,-0.51781"
       fill-rule="nonzero"
       stroke-width="0.647252"
       fill="#d0d0d0">
      <title
         id="title68">Monroe</title>
    </path>
    <path
       id="ia63"
       style="marker-start:none"
       d="m 489.93,750.77 1.055,29.198 -14.324,0.46602 -14.304,0.40777 -0.81553,-27.793 -0.0518,-1.3398 28.44,-0.93851"
       fill-rule="nonzero"
       stroke-width="0.647252"
       fill="#d0d0d0">
      <title
         id="title63">Marion</title>
    </path>
    <path
       id="ia50"
       style="marker-start:none"
       d="m 466.64,721.71 28.79,-0.8738 1.6116,29.664 -7.1198,0.26538 -28.44,0.93851 -2.013,-29.825 7.1716,-0.16827"
       fill-rule="nonzero"
       stroke-width="0.647252"
       fill="#d0d0d0">
      <title
         id="title50">Jasper</title>
    </path>
    <path
       id="ia64"
       style="marker-start:none"
       d="m 479.98,692.18 14.375,-0.52427 1.0744,29.178 -28.79,0.8738 -0.84143,-29.055 14.181,-0.4725"
       fill-rule="nonzero"
       stroke-width="0.647252"
       fill="#d0d0d0">
      <title
         id="title64">Marshall</title>
    </path>
    <path
       id="ia38"
       style="marker-start:none"
       d="m 506.5,662.2 1.9871,21.631 -14.36,0.56635 0.23754,7.2588 -14.375,0.52427 -2.4854,-29.081 28.997,-0.89968"
       fill-rule="nonzero"
       stroke-width="0.647252"
       fill="#d0d0d0">
      <title
         id="title38">Grundy</title>
    </path>
    <path
       id="ia12"
       style="marker-start:none"
       d="m 476.68,633.64 28.68,-0.89968 0.78964,22.201 0.34304,7.2622 -28.997,0.89968 -0.81554,-29.463"
       fill-rule="nonzero"
       stroke-width="0.647252"
       fill="#d0d0d0">
      <title
         id="title12">Butler</title>
    </path>
    <path
       id="ia34"
       style="marker-start:none"
       d="m 475.95,608.09 28.473,-0.9644 0.93852,25.618 -28.68,0.89968 -0.73141,-25.554"
       fill-rule="nonzero"
       stroke-width="0.647252"
       fill="#d0d0d0">
      <title
         id="title34">Floyd</title>
    </path>
    <path
       id="ia66"
       style="marker-start:none"
       d="m 503.64,583.02 0.78318,24.097 -28.473,0.9644 -0.78316,-24.045 28.473,-1.0162"
       fill-rule="nonzero"
       stroke-width="0.647252"
       fill="#d0d0d0">
      <title
         id="title66">Mitchcell</title>
    </path>
    <path
       id="ia45"
       style="marker-start:none"
       d="m 509.95,582.79 22.253,-0.90615 0.9644,24.097 -28.738,1.1392 -0.78318,-24.097 6.3042,-0.23301"
       fill-rule="nonzero"
       stroke-width="0.647252"
       fill="#d0d0d0">
      <title
         id="title45">Howard</title>
    </path>
    <path
       id="ia19"
       style="marker-start:none"
       d="m 533.16,605.98 0.4013,10.919 0.58899,14.725 -28.79,1.1133 -0.93852,-25.618 28.738,-1.1392"
       fill-rule="nonzero"
       stroke-width="0.647252"
       fill="#d0d0d0">
      <title
         id="title19">Chickasaw</title>
    </path>
    <path
       id="ia09"
       style="marker-start:none"
       d="m 505.36,632.74 28.79,-1.1133 0.91264,22.201 -28.913,1.1133 L 505.36,632.74"
       fill-rule="nonzero"
       stroke-width="0.647252"
       fill="#d0d0d0">
      <title
         id="title09">Bremer</title>
    </path>
    <path
       id="ia07"
       style="marker-start:none"
       d="m 535.07,653.83 0.62783,14.621 1.1456,1.8641 0.46603,12.401 -14.382,0.55664 -14.44,0.5631 -1.9871,-21.631 -0.34304,-7.2622 28.913,-1.1133"
       fill-rule="nonzero"
       stroke-width="0.647252"
       fill="#d0d0d0">
      <title
         id="title07">Black Hawk</title>
    </path>
    <path
       id="ia86"
       style="marker-start:none"
       d="m 522.92,683.27 1.4563,36.479 -28.945,1.0874 -1.3361,-36.443 28.825,-1.124"
       fill-rule="nonzero"
       stroke-width="0.647252"
       fill="#d0d0d0">
      <title
         id="title86">Tama</title>
    </path>
    <path
       id="ia79"
       style="marker-start:none"
       d="m 495.43,720.84 28.945,-1.0874 1.2039,29.644 -7.1262,0.29127 -21.411,0.81553 -1.6116,-29.664"
       fill-rule="nonzero"
       stroke-width="0.647252"
       fill="#d0d0d0">
      <title
         id="title79">Poweshiek</title>
    </path>
    <path
       id="ia62"
       style="marker-start:none"
       d="m 497.05,750.5 21.411,-0.81553 1.2298,29.178 -14.388,0.58253 -14.317,0.51781 -1.055,-29.198 7.1198,-0.26538"
       fill-rule="nonzero"
       stroke-width="0.647252"
       fill="#d0d0d0">
      <title
         id="title62">Mahaska</title>
    </path>
    <path
       id="ia90"
       style="marker-start:none"
       d="m 519.69,778.86 14.382,-0.62136 0.93205,22.084 -28.848,1.1392 -0.85436,-22.02 14.388,-0.58253"
       fill-rule="nonzero"
       stroke-width="0.647252"
       fill="#d0d0d0">
      <title
         id="title90">Wapello</title>
    </path>
    <path
       id="ia26"
       style="marker-start:none"
       d="m 535,800.33 0.95793,25.12 -10.731,0.69904 -18.058,1.2233 -1.0162,-25.903 28.848,-1.1392"
       fill-rule="nonzero"
       stroke-width="0.647252"
       fill="#d0d0d0">
      <title
         id="title26">Davis</title>
    </path>
    <path
       id="ia89"
       style="marker-start:none"
       d="m 535,800.33 28.88,-1.3398 0.29774,7.3528 0.95146,18.02 -14.291,0.0389 -14.88,1.0485 -0.95793,-25.12"
       fill-rule="nonzero"
       stroke-width="0.647252"
       fill="#d0d0d0">
      <title
         id="title89">Van Buren</title>
    </path>
    <path
       id="ia51"
       style="marker-start:none"
       d="m 563.03,776.99 0.84791,21.994 -28.88,1.3398 -0.93205,-22.084 14.608,-0.69902 14.356,-0.55018"
       fill-rule="nonzero"
       stroke-width="0.647252"
       fill="#d0d0d0">
      <title
         id="title51">Jefferson</title>
    </path>
    <path
       id="ia06"
       style="marker-start:none"
       d="m 551.65,681.95 1.5793,36.693 -28.855,1.1068 -1.4563,-36.479 14.382,-0.55664 14.35,-0.76376"
       fill-rule="nonzero"
       stroke-width="0.647252"
       fill="#d0d0d0">
      <title
         id="title06">Benton</title>
    </path>
    <path
       id="ia48"
       style="marker-start:none"
       d="m 524.38,719.75 28.855,-1.1068 1.424,29.372 -7.2298,0.38834 -21.845,0.9903 -1.2039,-29.644"
       fill-rule="nonzero"
       stroke-width="0.647252"
       fill="#d0d0d0">
      <title
         id="title48">Iowa</title>
    </path>
    <path
       id="ia54"
       style="marker-start:none"
       d="m 525.58,749.39 21.845,-0.9903 1.2492,29.139 -14.608,0.69902 -14.382,0.62136 -1.2298,-29.178 7.1262,-0.29127"
       fill-rule="nonzero"
       stroke-width="0.647252"
       fill="#d0d0d0">
      <title
         id="title54">Keokuk</title>
    </path>
    <path
       id="ia92"
       style="marker-start:none"
       d="m 554.66,748.01 19.198,-0.83496 1.0226,1.4563 1.6052,5.7476 0.90616,21.961 -14.356,0.64724 -14.356,0.55018 -1.2492,-29.139 7.2298,-0.38834"
       fill-rule="nonzero"
       stroke-width="0.647252"
       fill="#d0d0d0">
      <title
         id="title92">Washington</title>
    </path>
    <path
       id="ia44"
       style="marker-start:none"
       d="m 577.39,776.34 7.5534,7.0615 -1.3398,22.084 -19.424,0.84791 -0.29774,-7.3528 -0.84791,-21.994 14.356,-0.64724"
       fill-rule="nonzero"
       stroke-width="0.647252"
       fill="#d0d0d0">
      <title
         id="title44">Henry</title>
    </path>
    <path
       id="ia56"
       style="marker-start:none"
       d="m 564.18,806.34 19.424,-0.84791 19.139,8.8415 -4.3819,5.1392 -2.0388,0.0518 -1.6634,0.12304 -0.49838,0.0259 h -0.0259 l -3.301,1.1586 -0.0906,0.0582 -0.37541,0.2136 -1.5793,0.89968 -0.55664,0.34952 -0.19417,0.21359 -0.23301,0.22654 -0.23301,0.26538 -2.6537,4.0777 -0.0971,0.62136 0.20713,0.69904 1.288,0.60841 1.0485,1.521 0.34952,1.0162 0.0518,0.84142 -0.16829,7.5081 -0.0259,0.0518 -0.1488,0.73141 -0.66667,0.55662 -0.0906,0.0518 -1.9288,0.67962 -4.136,-0.29775 -2.6343,-2.1294 -6.356,-7.8188 -0.23301,-0.58253 0.20712,-1.6958 -0.1488,-0.55016 -4.9903,-3.767 -1.3139,-0.822 -0.95145,-18.02"
       fill-rule="nonzero"
       stroke-width="0.647252"
       fill="#d0d0d0">
      <title
         id="title56">Lee</title>
    </path>
    <path
       id="ia29"
       style="marker-start:none"
       d="m 611.29,782.18 0.0582,0.20712 0.23303,0.72491 0.31715,2.2524 -0.25243,6.7961 -0.53075,2.479 -0.34951,0.52427 -1.8058,1.0227 -0.67313,0.66021 -4.8738,6.9515 -0.23301,1.0809 -0.43364,9.4499 -19.139,-8.8415 1.3398,-22.084 26.343,-1.2233"
       fill-rule="nonzero"
       stroke-width="0.647252"
       fill="#d0d0d0">
      <title
         id="title29">Des Moines</title>
    </path>
    <path
       id="ia58"
       style="marker-start:none"
       d="m 576.48,754.38 7.178,-0.29126 0.31715,7.3204 18.026,-0.69902 v 0.0259 l -1.78,7.1262 0.0648,0.69256 0.0259,0.0582 4.2266,5.0809 1.9935,0.9903 0.83494,-0.11648 0.50487,0.23301 0.53075,0.55018 2.9385,4.8156 -0.0582,2.013 -26.343,1.2233 -7.5534,-7.0615 -0.90616,-21.961"
       fill-rule="nonzero"
       stroke-width="0.647252"
       fill="#d0d0d0">
      <title
         id="title58">Louisa</title>
    </path>
    <path
       id="ia70"
       style="marker-start:none"
       d="m 612.01,738.02 7.7347,11.722 -3.8188,0.0323 -8.7509,2.3884 -2.343,0.8479 -0.66667,0.43365 -0.0582,0.0323 v 0.0259 l -0.44013,0.62136 -0.0582,0.16183 -0.86731,3.5664 -0.73787,2.8609 -18.026,0.69903 -0.31715,-7.3204 -0.58253,-14.706 28.932,-1.3657"
       fill-rule="nonzero"
       stroke-width="0.647252"
       fill="#d0d0d0">
      <title
         id="title70">Muscatine</title>
    </path>
    <path
       id="ia52"
       style="marker-start:none"
       d="m 582.02,717.45 1.055,21.935 0.58253,14.706 -7.178,0.29126 -1.6052,-5.7476 -1.0226,-1.4563 -19.198,0.83496 -1.424,-29.372 28.79,-1.1909"
       fill-rule="nonzero"
       stroke-width="0.647252"
       fill="#d0d0d0">
      <title
         id="title52">Johnson</title>
    </path>
    <path
       id="ia57"
       style="marker-start:none"
       d="m 580.42,680.84 1.2622,29.288 0.34304,7.3204 -28.79,1.1909 -1.5793,-36.693 14.414,-0.41424 14.35,-0.69256"
       fill-rule="nonzero"
       stroke-width="0.647252"
       fill="#d0d0d0">
      <title
         id="title57">Linn</title>
    </path>
    <path
       id="ia16"
       style="marker-start:none"
       d="m 610.53,708.76 0.78965,14.641 0.69256,14.621 -28.932,1.3657 -1.3981,-29.256 28.848,-1.3722"
       fill-rule="nonzero"
       stroke-width="0.647252"
       fill="#d0d0d0">
      <title
         id="title16">Cedar</title>
    </path>
    <path
       id="ia53"
       style="marker-start:none"
       d="m 594.74,680.17 14.233,-0.7055 1.178,21.942 0.37541,7.3528 -28.848,1.3722 -1.2622,-29.288 14.324,-0.67314"
       fill-rule="nonzero"
       stroke-width="0.647252"
       fill="#d0d0d0">
      <title
         id="title53">Jones</title>
    </path>
    <path
       id="ia10"
       style="marker-start:none"
       d="m 564.08,652.42 0.17475,6.3625 0.40778,8.2848 1.055,8.0195 0.34952,6.4466 -14.414,0.41424 -14.35,0.76376 -0.46603,-12.401 -1.1456,-1.8641 -0.62783,-14.621 29.016,-1.4045"
       fill-rule="nonzero"
       stroke-width="0.647252"
       fill="#d0d0d0">
      <title
         id="title10">Buchanan</title>
    </path>
    <path
       id="ia33"
       style="marker-start:none"
       d="m 533.56,616.9 28.952,-1.178 1.5664,36.699 -29.016,1.4045 -0.91264,-22.201 -0.58899,-14.725"
       fill-rule="nonzero"
       stroke-width="0.647252"
       fill="#d0d0d0">
      <title
         id="title33">Fayette</title>
    </path>
    <path
       id="ia96"
       style="marker-start:none"
       d="m 560.53,580.66 0.60841,13.275 0.44015,-0.0323 0.93851,21.819 -28.952,1.178 -0.4013,-10.919 -0.9644,-24.097 21.126,-0.8997 7.2039,-0.32362"
       fill-rule="nonzero"
       stroke-width="0.647252"
       fill="#d0d0d0">
      <title
         id="title96">Winneshiek</title>
    </path>
    <path
       id="ia03"
       style="marker-start:none"
       d="m 584.27,579.52 1.0486,6.4466 -0.0582,4.2913 6.479,4.5567 1.4045,1.7799 1.8317,2.945 -0.23301,1.0421 -4.6602,7.8512 -1.5858,6.1554 -25.981,1.1327 -0.93851,-21.819 -0.44015,0.0323 -0.60841,-13.275 23.741,-1.1392"
       fill-rule="nonzero"
       stroke-width="0.647252"
       fill="#d0d0d0">
      <title
         id="title03">Allamakee</title>
    </path>
    <path
       id="ia22"
       style="marker-start:none"
       d="m 588.5,614.59 1.2945,7.9353 1.3657,6.3819 5.5728,12.375 0.75728,1.5728 4.9256,3.2686 1.6958,0.78317 3.2104,0.76376 -14.265,3.1845 -28.971,1.5664 -1.5664,-36.699 25.981,-1.1327"
       fill-rule="nonzero"
       stroke-width="0.647252"
       fill="#d0d0d0">
      <title
         id="title22">Clayton</title>
    </path>
    <path
       id="ia28"
       style="marker-start:none"
       d="m 564.08,652.42 28.971,-1.5664 1.6893,29.314 -14.324,0.67314 -14.35,0.69256 -0.34952,-6.4466 -1.055,-8.0195 -0.40778,-8.2848 -0.17475,-6.3625"
       fill-rule="nonzero"
       stroke-width="0.647252"
       fill="#d0d0d0">
      <title
         id="title28">Delaware</title>
    </path>
    <path
       id="ia31"
       style="marker-start:none"
       d="m 593.05,650.86 14.265,-3.1845 7.903,1.5146 3.0615,0.73139 0.69903,0.34304 0.44013,0.44013 3.8835,7.0615 0.66667,2.1036 0.0389,0.47248 -0.23301,0.40129 -0.85437,1.4628 -0.0259,0.19418 0.0582,0.46601 0.1424,0.42072 0.49839,0.5178 1.424,1.0227 4.123,2.1294 5.2428,3.6505 0.0259,0.0259 0.15536,0.1488 -11.67,0.60842 0.38189,7.3463 -14.304,0.73141 -14.233,0.7055 -1.6893,-29.314"
       fill-rule="nonzero"
       stroke-width="0.647252"
       fill="#d0d0d0">
      <title
         id="title31">Dubuque</title>
    </path>
    <path
       id="ia49"
       style="marker-start:none"
       d="m 634.57,670.78 3.6699,4.2524 0.17475,0.27184 0.0323,0.31715 -0.34952,2.3625 -0.34952,0.78317 v 0.53075 l 0.85438,1.9223 0.0453,0.0906 1.7541,2.1877 0.0582,0.0518 1.055,0.8479 1.1327,0.73139 2.5696,0.822 10.79,12.854 -45.851,2.602 -1.178,-21.942 14.304,-0.73141 -0.38189,-7.3463 11.67,-0.60841"
       fill-rule="nonzero"
       stroke-width="0.647252"
       fill="#d0d0d0">
      <title
         id="title49">Jackson</title>
    </path>
    <path
       id="path6715"
       style="marker-start:none"
       d="m 584.24,579.5 -23.665,1.2136 -7.2816,0.40455 -21.036,0.80905 -22.249,1.0114 -6.2702,0.20193 -28.52,1.0113 h -1.6181 l -26.901,0.80907 -9.3042,0.20194 -19.418,0.40454 -16.788,0.40453 -11.731,0.20194 -24.879,0.20195 -3.6408,0.20193 -28.52,0.20196 h -4.0453 l -24.676,0.20193 -11.529,-0.20193 h -24.272 -8.6975 l 1.0113,20.024 1.4159,3.034 4.2476,0.20195 0.60648,0.20194 2.4272,8.2929 -0.20195,0.60647 -1.0113,2.6295 -4.2476,14.563 -2.4272,6.4725 -2.4272,11.327 1.6181,1.2136 2.0227,1.8204 1.6181,2.6295 2.0226,5.6635 2.2249,6.068 2.2249,0.20194 0.80907,0.40454 0.60648,0.80906 0.20194,1.0113 v 1.2136 l -0.40453,1.2136 0.80906,9.5065 1.8204,3.6408 -0.80906,5.0567 5.0567,14.159 8.2929,15.17 1.0113,15.575 8.8997,14.563 2.6295,9.7088 1.0113,16.99 4.2476,2.6295 -0.80906,9.5065 2.8317,12.136 -2.0227,9.9111 5.6634,16.788 24.676,0.20195 h 10.72 l 18.204,0.20193 h 17.799 10.113 l 15.17,-0.40452 13.552,-0.40453 15.17,-0.60648 13.754,-0.60648 11.529,-0.40453 17.395,-0.80907 24.07,-1.2136 4.8544,-0.20194 18.002,-1.2136 10.72,-0.80907 14.968,-1.0113 h 14.361 l 1.2136,0.80907 5.0567,3.8431 v 0.40453 l -0.20195,1.8204 0.40453,0.60648 6.2702,7.6861 2.6295,2.2249 4.0453,0.20194 2.0227,-0.60648 0.80907,-0.60646 v -0.80908 h 0.20194 v -7.4838 -0.80906 l -0.40453,-1.0113 -1.0113,-1.6181 -1.2136,-0.60648 -0.20195,-0.60646 v -0.60648 l 2.6295,-4.2476 0.40453,-0.20194 0.20195,-0.20194 0.20194,-0.20195 0.40452,-0.40453 1.6182,-0.80907 0.40453,-0.20193 0.20193,-0.20196 3.2363,-1.0113 h 0.40453 l 1.8204,-0.20194 h 2.0227 l 4.2476,-5.2589 0.60646,-9.3042 0.20195,-1.2136 4.8544,-6.8771 0.60648,-0.60646 1.8204,-1.0114 0.40453,-0.60646 0.40454,-2.4272 0.40453,-6.8771 -0.40453,-2.2249 -0.20195,-0.80907 v -0.20193 -2.0227 l -3.034,-4.6521 -0.40453,-0.60647 -0.60648,-0.20195 h -0.80906 l -2.0227,-1.0113 -4.2476,-5.0566 v -0.60648 l 1.8204,-7.2816 0.60646,-2.8317 1.0114,-3.6408 0.40452,-0.60648 v -0.20193 l 0.80906,-0.40453 2.2249,-0.80907 8.8997,-2.4272 h 3.843 l 0.80907,0.20195 2.0227,-0.20195 5.0567,-1.2136 11.934,-5.8657 3.6408,-4.2476 3.2363,-4.4499 1.0113,-9.102 4.2476,-4.8544 4.8544,-12.541 -0.60648,-8.6974 -10.922,-12.743 -2.4272,-0.80905 -1.2136,-0.80907 -1.0113,-0.80906 v -0.20195 l -1.8204,-2.0227 v -0.20195 l -0.80908,-1.8204 v -0.60648 l 0.20196,-0.80908 0.40452,-2.4272 v -0.20193 l -0.20195,-0.20194 -3.6408,-4.2476 -0.20195,-0.20193 -5.2589,-3.6408 -4.0453,-2.2249 -1.4159,-1.0113 -0.60648,-0.40454 -0.20193,-0.60647 v -0.40454 -0.20194 l 0.80907,-1.4159 0.40453,-0.40453 -0.20195,-0.40453 -0.60647,-2.2249 -3.8431,-7.0793 -0.40453,-0.40453 -0.80907,-0.40454 -3.034,-0.60647 -7.8884,-1.6181 -3.2363,-0.60648 -1.6181,-0.80907 -5.0566,-3.2362 -0.60648,-1.6181 -5.6635,-12.338 -1.4159,-6.4725 -1.2136,-7.8884 1.6181,-6.2703 4.6521,-7.6861 0.20194,-1.2136 -1.8204,-2.8317 -1.4159,-1.8204 -6.4725,-4.6521 v -4.2476 l -1.0113,-6.4725 z"
       stroke-width="1.94176"
       fill="none" />
  </g>
</svg>
